<?xml version="1.0" encoding="UTF-8"?>
<svg id="Layer_1" xmlns="http://www.w3.org/2000/svg" width="710" height="185.5" version="1.1" viewBox="0 0 710 185.5">
  <defs>
    <style>
      .st0 { fill: #fff; }
      .st1 { fill: #ca7; }
    </style>
  </defs>
  <path class="st0" d="M1.5,81.7h2.3c.3.6.6,1,1.4,1.2.8.2,1.9.3,4.1.3h35.7c4.3,0,5-.2,5.5-1.4h2.3l1.5,14.5h-2.4c-1.2-8.8-2.9-9.3-7.9-9.3h-12.1v39.8c0,5.7.9,6.7,9.8,6.7v2.3H12.7v-2.3c8.4,0,9.8-1.1,9.8-6.7v-39.8h-12.1c-5,0-6.7.5-7.9,9.3H0l1.5-14.5h0Z"/>
  <path class="st0" d="M86,126c0,4.9.8,7.2,7.5,7.3v2.3h-24.4v-2.3c6.8-.4,7.5-2.3,7.5-7.9v-31.5c0-6.3-.9-8.4-7.5-8.5v-2.3h24.4v2.3c-6.3.3-7.5,1.6-7.5,9v12.6h30.5v-12.7c0-6.8-.8-8.6-7.8-8.9v-2.3h24.8v2.3c-6.7.3-7.7,1.8-7.7,8.3v31.8c0,6,.9,7.4,7.7,7.9v2.3h-24.8v-2.3c6.6-.3,7.8-2,7.8-8v-14.6h-30.5v15.3h0Z"/>
  <path class="st0" d="M150.6,135.6v-2.3c6.8,0,8.5-1.1,8.5-5.8v-36.4c0-5.6-2.8-5.7-8.5-5.7v-2.3h43.1l.8,12.7h-2.3l-.4-1.8c-1.7-6.9-3-7.1-8.4-7.1h-14.9v19.7h13.1c4.9,0,5.8-.6,6.3-6.4h2.3v17h-2.3c-.6-6-1.7-6.8-6.3-6.8h-13.1v15.4c0,5.2.7,6.1,5,6.1h9.4c8.5,0,10.2-1.2,12.5-9.5h2.3l-1.3,13.3h-45.8Z"/>
  <path class="st0" d="M291.7,133.3c5.8-.3,7.1-1.4,7.1-8.9v-30.1c0-8.2-1.4-9-8.1-9v-2.3c2.5,0,6.7-.2,8.7-.3,4.1-.2,9.6-.4,11.2-.4,16,0,24.6,3.6,24.6,15.2s-8.2,16.7-20.1,16.7-4.6-.2-6.9-.6v11.6c0,6.5,1.7,7.9,9.5,8v2.3h-26v-2.3h0ZM308.2,111.2c1.1.2,2.4.4,3.6.4,7.8,0,13.2-5.9,13.2-14.2s-2.5-12.7-12.7-12.7-2.9,0-4.1.3v26.2h0Z"/>
  <path class="st0" d="M350.7,135.6v-2.3c6.7,0,8.2-.6,8.2-7.3v-33.4c0-5.7-.6-7.4-8.2-7.3v-2.3h27.7v2.3c-9.1,0-10.1.3-10.1,6.7v35.6c0,3.5.7,4.1,4.6,4.1h8.7c7.2,0,7.7-.3,14-8.9h2.5l-6.5,12.7h-40.9Z"/>
  <path class="st0" d="M401.1,133.3c5.7,0,6.7-1,9.1-7.6l15.3-41.9-.7-2.1h9.4l16.5,44c2.4,6.6,3.3,7.6,8.6,7.6v2.3h-25.1v-2.3c6.7,0,8.5-.7,8.5-3.1s-.3-2.3-1.2-4.5l-4.1-10.5h-19.3l-4.1,11.2c-.6,1.6-.8,2.7-.8,3.6,0,2.4,1.7,3.6,8.4,3.3v2.3h-20.6v-2.3h0ZM435.9,111l-8.1-21.4-8,21.4h16.1Z"/>
  <path class="st0" d="M469.3,92.2c-4.2-6.1-5.3-6.6-10.6-6.8v-2.3h25.4v2.3c-4.6,0-5.9.9-5.9,2.5s.7,2.5,2.9,5.7l11.1,15.8,9.6-15.3c1.9-3.1,2.8-4.8,2.8-6,0-1.9-1.6-2.6-5.4-2.6v-2.3h19.8v2.3c-6.2.7-7.7,1.8-13.1,10.5l-11.4,18.4v11.7c0,6.2,1,7.3,8,7.3v2.3h-25.5v-2.3c6.4,0,8.1-.6,8.1-7.6v-10.7l-15.9-22.8h0Z"/>
  <path class="st0" d="M528.5,135.6v-2.3c6.8,0,8.5-1.1,8.5-5.8v-36.4c0-5.6-2.8-5.7-8.5-5.7v-2.3h43.1l.8,12.7h-2.3l-.4-1.8c-1.7-6.9-3-7.1-8.4-7.1h-14.9v19.7h13.1c4.9,0,5.8-.6,6.3-6.4h2.3v17h-2.3c-.6-6-1.7-6.8-6.3-6.8h-13.1v15.4c0,5.2.7,6.1,5,6.1h9.4c8.5,0,10.2-1.2,12.5-9.5h2.3l-1.3,13.3h-45.8Z"/>
  <path class="st0" d="M658.3,121.8h2.5c2.1,7.8,7.3,12.2,14.6,12.2s10.5-3.6,10.5-8.7c0-11.8-26.6-16.5-26.6-31.2s6.4-12.3,15.4-12.3,4.8.3,6.5.7c1.7.3,3,.7,4.5.7s1.7-.3,2.4-1h2.1l1.9,13.1h-2.5c-2.5-6.7-7.8-10.7-13.8-10.7s-8.3,3.2-8.3,6.9c0,11.3,26.7,14.7,26.7,31s-7.3,14.6-18.2,14.6-8.9-1.5-11.3-1.5-1.7.3-2.3.9h-2l-2.1-14.6h0Z"/>
  <path class="st0" d="M645,133.7c-1.4-.5-2.5-1.5-3.5-2.6-1.8-2-3.5-4.2-6.2-8.3-2.2-3.3-5.5-9.8-7.8-12.3,6-3,9-7.2,9-13s-5.8-15.1-22.9-15.1-5.8,0-10.3.2c-5.8.3-10.1.6-12.1.6v2.5c6.9,0,7.9,1.1,7.9,6.6v33.8c0,5.6-.8,7.2-7.9,7v2.6h25.8v-2.5c-7.7.3-8.6-.8-8.6-8.1v-11.1c2.1.2,4.9.2,7.3,0h0c4.6,0,5.7.4,7.2,3.4,1.7,3.3,4.5,8.9,7,12.6,3.1,4.6,6.2,7.2,13.9,7.3.8,0,1.6,0,2.5,0,0,0,.8,0,.8,0,.7,0,1.5,0,2.2,0v-2.7c-1.4-.2-2.9-.2-4.3-.7ZM611.1,111.7c-.5,0-2.1-.2-2.7-.3v-26.4c.8-.2,2.8-.3,4-.3,9.2,0,13.8,5.1,13.8,13.6s-3.9,12.9-15.1,13.4Z"/>
  <path class="st1" d="M275.3,41.7c2.6-2.6,2.6-8.9,2.6-8.9-2.6-4.8-8-6.2-8-6.2-1.2-.9-2.2,0-2.6.4h0L223.5.3c-3.2-1.7-7.6,4-8.7,6.1-.5.8,1,1.8,1.9,2.5,4,2.6,5.6-3.6,7-6l42.9,27.2c-.1,0-.1,1.2,0,1.3,0,3.4,2.8,6.3,1.1,11.3-.5,7.1-8.1,8.5-12.2,12.9-3.8,3.8-11.5,3.3-14.6,6.4-2.7-7.3-4.4-7.6-5.2-10.5-3.3-1.3-7.3-1.5-10.5.1-3.1,2-4.6,5.8-4.1,9.1,0,3.4,4.9,7.1,7.4,8.6-1.6,2.3-2.4,5.2-2.5,6.4-.4,5.1,3.6,9.9,4.7,11.9,4.8,7,7.4,12.6,8.5,14.6.2.4.4.7.2,1.2-.1.2-4.1,7.2,2.6,17.3,2.7,5.2,6.6,16.8,6.6,16.9,1.5,1.6-2.1.6-2.5,4.4-2.6,1-22.4,16.2-26.9,20.2-1.8.5-4.1.5-4.8,2.7-.1.2-.9,2.2-1.3,2.6-1.9,2.2-4.1,6.1-4.5,9.9-.4,1.9,0,5.8,2.3,6.8,1,.5,1.5.1,1.7,0,.3-.1,1.6-3.6,1.7-4,1.6-3.9,3.9-4.9,9.2-10.2,2.7.7,3.8,2.3,6.6,3,7.4-6.9,14.9-13.2,22.2-20.3-1.1,10.9-2.1,22.2-2.1,25.2-.5,1.9-.6,3.8.7,5.5,0,0,11.6,2.8,14.6,1.9,1.1-.3,1.2-.8,1.2-.8,0,0,1.1-1.6-1.9-3.8-.8-.6-2.9-3.2-4.5-4.2,2.1-.5,4.3-.8,4.7-.8-.5-5.8-.6-18.2-1.1-34.5-1.8-16.8-1.9-22.5-10.4-57,6-6.7,5.7-10.9,11.4-17.9,3.1-6,7.8-18.1,9.8-24.6M250.8,73.2c-.2-.6-1.7-4.7-2.2-6.2,0-.2,9.3-6.3,9.3-6.3,0,0,.5,1.7.6,2.3,0,0-6.3,9.4-7.6,10.3"/>
  <path class="st0" d="M710,88c0,3.2-2.6,5.8-5.8,5.8s-5.8-2.6-5.8-5.8,2.6-5.8,5.8-5.8,5.8,2.6,5.8,5.8h0ZM699,88c0,2.8,2.3,5.1,5.1,5.1s5.1-2.3,5.1-5.1-2.3-5.1-5.1-5.1-5.1,2.3-5.1,5.1h0ZM704.3,84.6c1.8,0,2.6.8,2.6,1.8s-.5,1.4-1.5,1.7l1.1,2.1c.3.5.5.8.9.8v.3h-2l-1.7-3h-.4v1.6c0,.9.1,1.1,1,1.1v.3h-3.5v-.3c.7,0,.9-.2.9-1.1v-3.9c0-.9-.1-1-.7-1.1v-.3h3.3ZM703.4,87.8c1.2.2,1.8-.5,1.8-1.5s-.5-1.4-1.4-1.4h-.4v2.9h0Z"/>
</svg>
